REM DIRINDEX 1\2,1\3,1\4
REM DIRNAME folder01,folder02,folder03,folder04
TITLE ""
FILE "CD1-05.mp3" MP3
  TRACK 01 AUDIO
    TITLE "2:cjc031_0084"
    INDEX 01 00:00:00
  TRACK 02 AUDIO
    TITLE "3:cjc031_0085"
    INDEX 01 00:01:03
  TRACK 03 AUDIO
    TITLE "2:cjc031_0086"
    INDEX 01 00:02:45
  TRACK 04 AUDIO
    TITLE "3:cjc031_0087"
    INDEX 01 00:04:03
  TRACK 05 AUDIO
    TITLE "2:cjc031_0088"
    INDEX 01 00:05:32
  TRACK 06 AUDIO
    TITLE "3:cjc031_0089"
    INDEX 01 00:06:65
  TRACK 07 AUDIO
    TITLE "2:cjc031_0090"
    INDEX 01 00:08:26
  TRACK 08 AUDIO
    TITLE "3:cjc031_0091"
    INDEX 01 00:09:30
  TRACK 09 AUDIO
    TITLE "2:cjc031_0092"
    INDEX 01 00:10:53
  TRACK 10 AUDIO
    TITLE "3:cjc031_0093"
    INDEX 01 00:11:70
  TRACK 11 AUDIO
    TITLE "2:cjc031_0094"
    INDEX 01 00:13:51
  TRACK 12 AUDIO
    TITLE "3:cjc031_0095"
    INDEX 01 00:15:05
  TRACK 13 AUDIO
    TITLE "2:cjc031_0096"
    INDEX 01 00:16:38
  TRACK 14 AUDIO
    TITLE "3:cjc031_0097"
    INDEX 01 00:17:74
  TRACK 15 AUDIO
    TITLE "2:cjc031_0098"
    INDEX 01 00:19:38
  TRACK 16 AUDIO
    TITLE "3:cjc031_0099"
    INDEX 01 00:20:45
  TRACK 17 AUDIO
    TITLE "2:cjc031_0100"
    INDEX 01 00:21:74
  TRACK 18 AUDIO
    TITLE "3:cjc031_0101"
    INDEX 01 00:23:14
  TRACK 19 AUDIO
    TITLE "2:cjc031_0102"
    INDEX 01 00:24:61
  TRACK 20 AUDIO
    TITLE "3:cjc031_0103"
    INDEX 01 00:26:03
  TRACK 21 AUDIO
    TITLE "2:cjc031_0104"
    INDEX 01 00:27:57
  TRACK 22 AUDIO
    TITLE "3:cjc031_0105"
    INDEX 01 00:29:05
  TRACK 23 AUDIO
    TITLE "2:cjc031_0106"
    INDEX 01 00:30:48
  TRACK 24 AUDIO
    TITLE "3:cjc031_0107"
    INDEX 01 00:31:71
  TRACK 25 AUDIO
    TITLE "2:cjc031_0108"
    INDEX 01 00:33:34
  TRACK 26 AUDIO
    TITLE "3:cjc031_0109"
    INDEX 01 00:34:65
  TRACK 27 AUDIO
    TITLE "2:cjc031_0110"
    INDEX 01 00:36:40
  TRACK 28 AUDIO
    TITLE "3:cjc031_0111"
    INDEX 01 00:37:71
  TRACK 29 AUDIO
    TITLE "2:cjc031_0112"
    INDEX 01 00:39:54
  TRACK 30 AUDIO
    TITLE "3:cjc031_0113"
    INDEX 01 00:40:72
  TRACK 31 AUDIO
    TITLE "2:cjc031_0114"
    INDEX 01 00:42:33
  TRACK 32 AUDIO
    TITLE "3:cjc031_0115"
    INDEX 01 00:43:44
  TRACK 33 AUDIO
    TITLE "2:cjc031_0116"
    INDEX 01 00:46:11
  TRACK 34 AUDIO
    TITLE "3:cjc031_0117"
    INDEX 01 00:47:38
  TRACK 35 AUDIO
    TITLE "2:cjc031_0118"
    INDEX 01 00:49:02
  TRACK 36 AUDIO
    TITLE "3:cjc031_0119"
    INDEX 01 00:50:07
  TRACK 37 AUDIO
    TITLE "2:cjc031_0120"
    INDEX 01 00:51:69
  TRACK 38 AUDIO
    TITLE "3:cjc031_0121"
    INDEX 01 00:53:13
  TRACK 39 AUDIO
    TITLE "2:cjc031_0122"
    INDEX 01 00:54:44
  TRACK 40 AUDIO
    TITLE "3:cjc031_0123"
    INDEX 01 00:55:57
  TRACK 41 AUDIO
    TITLE "2:cjc031_0124"
    INDEX 01 00:57:46
  TRACK 42 AUDIO
    TITLE "3:cjc031_0125"
    INDEX 01 00:58:66
  TRACK 43 AUDIO
    TITLE "2:cjc031_0126"
    INDEX 01 01:00:31
  TRACK 44 AUDIO
    TITLE "3:cjc031_0127"
    INDEX 01 01:01:36
  TRACK 45 AUDIO
    TITLE "2:cjc031_0128"
    INDEX 01 01:03:18
  TRACK 46 AUDIO
    TITLE "3:cjc031_0129"
    INDEX 01 01:04:45
  TRACK 47 AUDIO
    TITLE "2:cjc031_0130"
    INDEX 01 01:06:40
  TRACK 48 AUDIO
    TITLE "3:cjc031_0131"
    INDEX 01 01:07:49
  TRACK 49 AUDIO
    TITLE "2:cjc031_0132"
    INDEX 01 01:09:07
  TRACK 50 AUDIO
    TITLE "3:cjc031_0133"
    INDEX 01 01:10:24
  TRACK 51 AUDIO
    TITLE "2:cjc031_0134"
    INDEX 01 01:12:03
  TRACK 52 AUDIO
    TITLE "3:cjc031_0135"
    INDEX 01 01:13:26
  TRACK 53 AUDIO
    TITLE "2:cjc031_0136"
    INDEX 01 01:14:61
  TRACK 54 AUDIO
    TITLE "3:cjc031_0137"
    INDEX 01 01:16:16
  TRACK 55 AUDIO
    TITLE "2:cjc031_0138"
    INDEX 01 01:17:45
  TRACK 56 AUDIO
    TITLE "3:cjc031_0139"
    INDEX 01 01:18:72
  TRACK 57 AUDIO
    TITLE "2:cjc031_0140"
    INDEX 01 01:20:71
  TRACK 58 AUDIO
    TITLE "3:cjc031_0141"
    INDEX 01 01:22:31
  TRACK 59 AUDIO
    TITLE "2:cjc031_0142"
    INDEX 01 01:23:71
  TRACK 60 AUDIO
    TITLE "3:cjc031_0143"
    INDEX 01 01:25:29
  TRACK 61 AUDIO
    TITLE "2:cjc031_0144"
    INDEX 01 01:26:70
  TRACK 62 AUDIO
    TITLE "3:cjc031_0145"
    INDEX 01 01:28:24
  TRACK 63 AUDIO
    TITLE "2:cjc031_0146"
    INDEX 01 01:29:62
  TRACK 64 AUDIO
    TITLE "3:cjc031_0147"
    INDEX 01 01:31:18
  TRACK 65 AUDIO
    TITLE "2:cjc031_0148"
    INDEX 01 01:32:60
  TRACK 66 AUDIO
    TITLE "3:cjc031_0149"
    INDEX 01 01:34:10
  TRACK 67 AUDIO
    TITLE "2:cjc031_0150"
    INDEX 01 01:35:61
  TRACK 68 AUDIO
    TITLE "3:cjc031_0151"
    INDEX 01 01:37:03
  TRACK 69 AUDIO
    TITLE "2:cjc031_0152"
    INDEX 01 01:38:42
  TRACK 70 AUDIO
    TITLE "3:cjc031_0153"
    INDEX 01 01:39:53
  TRACK 71 AUDIO
    TITLE "2:cjc031_0154"
    INDEX 01 01:41:22
  TRACK 72 AUDIO
    TITLE "3:cjc031_0155"
    INDEX 01 01:42:43
  TRACK 73 AUDIO
    TITLE "2:cjc031_0156"
    INDEX 01 01:44:03
  TRACK 74 AUDIO
    TITLE "3:cjc031_0157"
    INDEX 01 01:45:20
  TRACK 75 AUDIO
    TITLE "2:cjc031_0158"
    INDEX 01 01:46:47
  TRACK 76 AUDIO
    TITLE "3:cjc031_0159"
    INDEX 01 01:47:62
  TRACK 77 AUDIO
    TITLE "2:cjc031_0160"
    INDEX 01 01:49:32
  TRACK 78 AUDIO
    TITLE "3:cjc031_0161"
    INDEX 01 01:50:53
  TRACK 79 AUDIO
    TITLE "2:cjc031_0162"
    INDEX 01 01:52:20
  TRACK 80 AUDIO
    TITLE "3:cjc031_0163"
    INDEX 01 01:53:51
  TRACK 81 AUDIO
    TITLE "0:"
    INDEX 01 01:55:07
